# xmcd
#
# Track frame offsets: 
#        150
#        17131
#        40445
#        56687
#        73521
#
# Disc length: 1289 seconds
#
# Revision: 0
# Processed by: cddbd v1.5.2PL0 Copyright (c) Steve Scherf et al.
# Submitted via: ExactAudioCopy v1.0b1
#
DISCID=41050705
DTITLE=Ailee - Heaven
DYEAR=2013
DGENRE=Pop
TTITLE0=Heaven
TTITLE1=Starlight
TTITLE2=HEAVEN (Original Version)
TTITLE3=Heaven (Backing Track)
TTITLE4=Starlight (Backing Track)
EXTD=
EXTT0=
EXTT1=
EXTT2=
EXTT3=
EXTT4=
PLAYORDER=
